<svg width="256" height="740" viewBox="0 0 256 740" fill="none" xmlns="http://www.w3.org/2000/svg">
<path d="M0 738.999H251.322" stroke="#3F3D56" stroke-width="1.51399" stroke-miterlimit="10"/>
<path d="M152.647 103.696C152.647 103.696 138.53 99.5221 135.502 104.064C132.474 108.606 139.63 141.532 139.63 141.532L170.736 143.422L159.881 116.009L152.647 103.696Z" fill="#2F2E41"/>
<path d="M43.821 374.079C43.821 374.079 72.1245 436.217 50.3276 434.265C28.5306 432.313 20.0721 374.079 20.0721 374.079H43.821Z" fill="#A0616A"/>
<path d="M228.932 367.606C228.932 367.606 216.515 434.747 237.191 427.576C257.867 420.405 251.974 361.856 251.974 361.856L228.932 367.606Z" fill="#A0616A"/>
<path d="M146.624 88.1164C146.624 88.1164 146.299 119.348 158.336 120.974C170.373 122.601 151.504 139.193 151.504 139.193L130.033 143.422L99.1267 141.145L85.463 123.577C85.463 123.577 109.537 112.191 99.1267 76.7299L146.624 88.1164Z" fill="#A0616A"/>
<path opacity="0.1" d="M146.624 88.1164C146.624 88.1164 146.299 119.348 158.336 120.974C170.373 122.601 151.504 139.193 151.504 139.193L130.033 143.422L99.1267 141.145L85.463 123.577C85.463 123.577 109.537 112.191 99.1267 76.7299L146.624 88.1164Z" fill="black"/>
<path d="M201.93 352.282C201.93 352.282 217.221 385.14 205.184 488.269C205.184 488.269 208.762 524.706 205.834 531.538C202.906 538.37 178.832 631.088 178.832 631.088C178.832 631.088 147.926 637.92 143.697 617.424C143.697 617.424 147.926 588.145 147.601 583.59C147.275 579.036 154.433 529.26 154.433 529.26L139.793 432.963L128.732 519.826C128.732 519.826 128.732 544.876 125.153 550.407C121.574 555.937 125.153 667.199 125.153 667.199C125.153 667.199 135.238 684.116 119.948 684.442C104.657 684.767 90.9936 684.116 89.6923 673.38C88.3909 662.645 87.7403 651.909 84.487 645.402C81.2338 638.896 77.0045 564.396 77.9805 538.37C78.9565 512.343 56.5089 378.634 63.6661 364.645C70.8233 350.656 201.93 352.282 201.93 352.282Z" fill="#2F2E41"/>
<path d="M130.033 99.8282C151.594 99.8282 169.072 82.3498 169.072 60.789C169.072 39.2282 151.594 21.7496 130.033 21.7496C108.472 21.7496 90.9935 39.2282 90.9935 60.789C90.9935 82.3498 108.472 99.8282 130.033 99.8282Z" fill="#A0616A"/>
<path d="M90.9935 124.228C90.9935 124.228 114.742 141.795 149.227 127.806C149.227 127.806 160.614 122.276 159.638 113.817C158.662 105.359 183.387 181.811 183.387 181.811L208.437 314.87L207.135 369.199C207.135 369.199 196.074 363.669 161.59 376.031C127.105 388.394 70.8232 362.042 70.8232 362.042L72.7752 222.477L74.7272 141.145L79.9324 123.252C79.9324 123.252 82.535 118.372 90.9935 124.228Z" fill="#F2F2F2"/>
<path d="M147.709 102.388C147.709 102.388 153.456 101.455 158.987 110.239C164.518 119.023 177.531 124.553 177.531 124.553C177.531 124.553 209.087 126.505 213.642 143.422C218.197 160.339 229.583 183.437 235.114 226.055C240.644 268.673 251.705 336.667 253.332 342.197C254.959 347.728 251.055 364.645 255.609 369.85C260.164 375.055 223.402 375.055 223.402 375.055C223.402 375.055 220.149 348.378 217.871 348.378C215.594 348.378 216.245 366.271 218.522 379.285C220.799 392.298 201.93 379.285 201.93 379.285C201.93 379.285 187.29 319.75 173.301 266.071C159.312 212.392 151.179 182.787 153.782 170.75C156.384 158.712 163.542 124.228 158.336 120.975C153.131 117.721 147.709 102.388 147.709 102.388Z" fill="#2F2E41"/>
<path d="M100.794 102.36C100.794 102.36 92.295 106.985 70.8233 122.276C49.3516 137.566 34.7119 149.278 34.7119 149.278C34.7119 149.278 26.2534 155.785 21.0482 194.498C15.843 233.212 4.13117 333.413 8.68577 346.101C13.2404 358.789 14.867 366.271 13.2404 373.754C11.6137 381.236 47.3997 380.911 48.0504 379.284C48.701 377.658 47.0744 348.053 48.701 347.402C50.3277 346.752 59.1115 364.97 60.7382 380.26C62.3648 395.551 81.2338 407.588 85.4631 407.588C89.6924 407.588 111.489 319.424 111.815 259.239C112.14 199.053 104.657 148.302 99.1268 141.145C93.5963 133.988 100.794 102.36 100.794 102.36Z" fill="#2F2E41"/>
<path d="M158.011 634.016C158.011 634.016 160.614 626.859 169.723 629.136C178.832 631.413 185.013 623.28 185.013 623.28C185.013 623.28 189.893 622.629 186.64 628.811C183.387 634.992 180.784 639.221 180.784 639.221C180.784 639.221 200.304 683.791 187.616 694.527C174.928 705.262 160.288 698.756 160.288 698.756C160.288 698.756 145.974 688.671 146.625 661.994C146.625 661.994 145.974 653.535 138.166 639.872C130.358 626.208 124.502 605.387 133.937 601.483C143.371 597.579 145.8 597.434 145.8 597.434C145.8 597.434 141.385 617.626 152.789 624.682L158.011 634.016Z" fill="#3F3D56"/>
<path d="M97.5002 684.442C97.5002 684.442 89.6923 669.802 102.705 668.175C115.719 666.549 129.708 665.573 129.057 672.404C128.406 679.236 126.78 689.647 126.78 689.647L129.057 697.129C129.057 697.129 129.708 715.673 131.985 717.95C134.262 720.228 146.625 739.747 120.273 739.747C93.9216 739.747 86.1137 736.819 88.391 730.638C90.6683 724.457 91.319 693.876 91.319 693.876L97.5002 684.442Z" fill="#3F3D56"/>
<path d="M117.67 29.5575C117.67 29.5575 135.889 34.4374 145.323 36.3894C154.758 38.3414 153.782 32.8108 153.782 32.8108C153.782 32.8108 166.144 34.4375 165.494 33.1362C164.843 31.8348 170.699 25.003 163.867 17.1951C157.035 9.38717 158.987 3.53135 158.987 3.53135H153.131L151.505 1.25409H142.395C142.395 1.25409 135.563 -1.34853 117.67 1.25409C99.7774 3.85671 75.3779 4.50735 73.4259 15.2432C71.4739 25.979 61.3888 39.3174 64.9674 45.4986C68.546 51.6798 89.0416 77.0553 90.9936 87.7911C92.9455 98.5269 102.06 100.912 101.732 94.189C101.404 87.4658 92.2949 64.0422 100.103 63.0663C107.911 62.0903 121.249 42.2453 117.67 29.5575Z" fill="#2F2E41"/>
</svg>
